<svg width="1440" height="1024" viewBox="0 0 1440 1024" fill="none" xmlns="http://www.w3.org/2000/svg">
<rect width="1440" height="1024" fill="white"/>
<ellipse cx="646.5" cy="119.5" rx="115.5" ry="53.5" fill="#D9D9D9"/>
<path d="M599.295 131V107.727H603.511V117.58H614.295V107.727H618.523V131H614.295V121.114H603.511V131H599.295ZM643.903 119.364C643.903 121.871 643.434 124.019 642.494 125.807C641.563 127.587 640.29 128.951 638.676 129.898C637.07 130.845 635.248 131.318 633.21 131.318C631.172 131.318 629.347 130.845 627.733 129.898C626.127 128.943 624.854 127.576 623.915 125.795C622.983 124.008 622.517 121.864 622.517 119.364C622.517 116.856 622.983 114.712 623.915 112.932C624.854 111.144 626.127 109.777 627.733 108.83C629.347 107.883 631.172 107.409 633.21 107.409C635.248 107.409 637.07 107.883 638.676 108.83C640.29 109.777 641.563 111.144 642.494 112.932C643.434 114.712 643.903 116.856 643.903 119.364ZM639.665 119.364C639.665 117.598 639.388 116.11 638.835 114.898C638.29 113.678 637.532 112.758 636.562 112.136C635.593 111.508 634.475 111.193 633.21 111.193C631.945 111.193 630.828 111.508 629.858 112.136C628.888 112.758 628.127 113.678 627.574 114.898C627.028 116.11 626.756 117.598 626.756 119.364C626.756 121.129 627.028 122.621 627.574 123.841C628.127 125.053 628.888 125.973 629.858 126.602C630.828 127.223 631.945 127.534 633.21 127.534C634.475 127.534 635.593 127.223 636.562 126.602C637.532 125.973 638.29 125.053 638.835 123.841C639.388 122.621 639.665 121.129 639.665 119.364ZM647.889 107.727H653.048L659.957 124.591H660.23L667.139 107.727H672.298V131H668.253V115.011H668.037L661.605 130.932H658.582L652.151 114.977H651.935V131H647.889V107.727ZM676.889 131V107.727H692.026V111.261H681.105V117.58H691.241V121.114H681.105V127.466H692.116V131H676.889Z" fill="black"/>
<g filter="url(#filter0_d_602195_805)">
<line x1="647" y1="173" x2="647" y2="249" stroke="black" stroke-width="2"/>
</g>
<line x1="107.998" y1="248" x2="1272" y2="246" stroke="black" stroke-width="2"/>
<path d="M107.293 288.707C107.683 289.098 108.317 289.098 108.707 288.707L115.071 282.343C115.462 281.953 115.462 281.319 115.071 280.929C114.681 280.538 114.047 280.538 113.657 280.929L108 286.586L102.343 280.929C101.953 280.538 101.319 280.538 100.929 280.929C100.538 281.319 100.538 281.953 100.929 282.343L107.293 288.707ZM107 249V288H109V249H107Z" fill="black"/>
<path d="M107 356V468" stroke="black" stroke-width="2"/>
<ellipse cx="110" cy="326" rx="51" ry="35" fill="#D9D9D9"/>
<path d="M78.2955 338V314.727H87.2045C88.8864 314.727 90.2841 314.992 91.3977 315.523C92.5189 316.045 93.3561 316.761 93.9091 317.67C94.4697 318.58 94.75 319.61 94.75 320.761C94.75 321.708 94.5682 322.519 94.2045 323.193C93.8409 323.86 93.3523 324.402 92.7386 324.818C92.125 325.235 91.4394 325.534 90.6818 325.716V325.943C91.5076 325.989 92.2992 326.242 93.0568 326.705C93.822 327.159 94.447 327.803 94.9318 328.636C95.4167 329.47 95.6591 330.477 95.6591 331.659C95.6591 332.864 95.3674 333.947 94.7841 334.909C94.2008 335.864 93.322 336.617 92.1477 337.17C90.9735 337.723 89.4962 338 87.7159 338H78.2955ZM82.5114 334.477H87.0455C88.5758 334.477 89.678 334.186 90.3523 333.602C91.0341 333.011 91.375 332.254 91.375 331.33C91.375 330.64 91.2045 330.019 90.8636 329.466C90.5227 328.905 90.0379 328.466 89.4091 328.148C88.7803 327.822 88.0303 327.659 87.1591 327.659H82.5114V334.477ZM82.5114 324.625H86.6818C87.4091 324.625 88.0644 324.492 88.6477 324.227C89.2311 323.955 89.6894 323.572 90.0227 323.08C90.3636 322.58 90.5341 321.989 90.5341 321.307C90.5341 320.405 90.2159 319.663 89.5795 319.08C88.9508 318.496 88.0152 318.205 86.7727 318.205H82.5114V324.625ZM113.997 314.727H118.213V329.932C118.213 331.598 117.819 333.064 117.031 334.33C116.251 335.595 115.152 336.583 113.736 337.295C112.319 338 110.664 338.352 108.77 338.352C106.868 338.352 105.209 338 103.793 337.295C102.376 336.583 101.277 335.595 100.497 334.33C99.7169 333.064 99.3267 331.598 99.3267 329.932V314.727H103.543V329.58C103.543 330.549 103.755 331.413 104.179 332.17C104.611 332.928 105.217 333.523 105.997 333.955C106.777 334.379 107.702 334.591 108.77 334.591C109.838 334.591 110.762 334.379 111.543 333.955C112.33 333.523 112.937 332.928 113.361 332.17C113.785 331.413 113.997 330.549 113.997 329.58V314.727ZM121.205 314.727H125.966L131.659 325.023H131.886L137.58 314.727H142.341L133.875 329.318V338H129.67V329.318L121.205 314.727Z" fill="black"/>
<ellipse cx="516.5" cy="329.5" rx="62.5" ry="36.5" fill="#D9D9D9"/>
<path d="M479.295 340V316.727H488.023C489.811 316.727 491.311 317.038 492.523 317.659C493.742 318.28 494.663 319.152 495.284 320.273C495.913 321.386 496.227 322.686 496.227 324.17C496.227 325.663 495.909 326.958 495.273 328.057C494.644 329.148 493.716 329.992 492.489 330.591C491.261 331.182 489.754 331.477 487.966 331.477H481.75V327.977H487.398C488.443 327.977 489.299 327.833 489.966 327.545C490.633 327.25 491.125 326.822 491.443 326.261C491.769 325.693 491.932 324.996 491.932 324.17C491.932 323.345 491.769 322.64 491.443 322.057C491.117 321.466 490.621 321.019 489.955 320.716C489.288 320.405 488.428 320.25 487.375 320.25H483.511V340H479.295ZM491.318 329.455L497.08 340H492.375L486.716 329.455H491.318ZM500.108 340V316.727H515.244V320.261H504.324V326.58H514.46V330.114H504.324V336.466H515.335V340H500.108ZM538.67 316.727V340H534.92L523.955 324.148H523.761V340H519.545V316.727H523.318L534.273 332.591H534.477V316.727H538.67ZM542.241 320.261V316.727H560.81V320.261H553.616V340H549.435V320.261H542.241Z" fill="black"/>
<ellipse cx="291" cy="324.5" rx="84" ry="31.5" fill="#D9D9D9"/>
<path d="M231.284 336H226.784L234.977 312.727H240.182L248.386 336H243.886L237.67 317.5H237.489L231.284 336ZM231.432 326.875H243.705V330.261H231.432V326.875ZM265.949 320.159C265.759 319.545 265.498 318.996 265.165 318.511C264.839 318.019 264.445 317.598 263.983 317.25C263.528 316.902 263.006 316.64 262.415 316.466C261.824 316.284 261.18 316.193 260.483 316.193C259.233 316.193 258.119 316.508 257.142 317.136C256.165 317.765 255.396 318.689 254.835 319.909C254.282 321.121 254.006 322.598 254.006 324.341C254.006 326.098 254.282 327.587 254.835 328.807C255.388 330.027 256.157 330.955 257.142 331.591C258.127 332.22 259.271 332.534 260.574 332.534C261.756 332.534 262.778 332.307 263.642 331.852C264.513 331.398 265.184 330.754 265.653 329.92C266.123 329.08 266.358 328.095 266.358 326.966L267.312 327.114H260.994V323.818H270.438V326.614C270.438 328.606 270.013 330.33 269.165 331.784C268.316 333.239 267.15 334.36 265.665 335.148C264.18 335.928 262.475 336.318 260.551 336.318C258.407 336.318 256.525 335.837 254.903 334.875C253.29 333.905 252.028 332.53 251.119 330.75C250.218 328.962 249.767 326.841 249.767 324.386C249.767 322.508 250.032 320.83 250.562 319.352C251.1 317.875 251.85 316.621 252.812 315.591C253.775 314.553 254.903 313.765 256.199 313.227C257.494 312.682 258.903 312.409 260.426 312.409C261.714 312.409 262.915 312.598 264.028 312.977C265.142 313.348 266.131 313.879 266.994 314.568C267.866 315.258 268.581 316.076 269.142 317.023C269.703 317.97 270.07 319.015 270.244 320.159H265.949ZM274.514 336V312.727H289.651V316.261H278.73V322.58H288.866V326.114H278.73V332.466H289.741V336H274.514ZM313.077 312.727V336H309.327L298.361 320.148H298.168V336H293.952V312.727H297.724L308.679 328.591H308.884V312.727H313.077ZM316.648 316.261V312.727H335.216V316.261H328.023V336H323.841V316.261H316.648ZM351.443 319.125C351.337 318.133 350.89 317.36 350.102 316.807C349.322 316.254 348.307 315.977 347.057 315.977C346.178 315.977 345.424 316.11 344.795 316.375C344.167 316.64 343.686 317 343.352 317.455C343.019 317.909 342.848 318.428 342.841 319.011C342.841 319.496 342.951 319.917 343.17 320.273C343.398 320.629 343.705 320.932 344.091 321.182C344.477 321.424 344.905 321.629 345.375 321.795C345.845 321.962 346.318 322.102 346.795 322.216L348.977 322.761C349.856 322.966 350.701 323.242 351.511 323.591C352.33 323.939 353.061 324.379 353.705 324.909C354.356 325.439 354.871 326.08 355.25 326.83C355.629 327.58 355.818 328.458 355.818 329.466C355.818 330.83 355.47 332.03 354.773 333.068C354.076 334.098 353.068 334.905 351.75 335.489C350.439 336.064 348.852 336.352 346.989 336.352C345.178 336.352 343.606 336.072 342.273 335.511C340.947 334.951 339.909 334.133 339.159 333.057C338.417 331.981 338.015 330.67 337.955 329.125H342.102C342.163 329.936 342.413 330.61 342.852 331.148C343.292 331.686 343.864 332.087 344.568 332.352C345.28 332.617 346.076 332.75 346.955 332.75C347.871 332.75 348.674 332.614 349.364 332.341C350.061 332.061 350.606 331.674 351 331.182C351.394 330.682 351.595 330.098 351.602 329.432C351.595 328.826 351.417 328.326 351.068 327.932C350.72 327.53 350.231 327.197 349.602 326.932C348.981 326.659 348.254 326.417 347.42 326.205L344.773 325.523C342.856 325.03 341.341 324.284 340.227 323.284C339.121 322.277 338.568 320.939 338.568 319.273C338.568 317.902 338.939 316.701 339.682 315.67C340.432 314.64 341.451 313.841 342.739 313.273C344.027 312.697 345.485 312.409 347.114 312.409C348.765 312.409 350.212 312.697 351.455 313.273C352.705 313.841 353.686 314.633 354.398 315.648C355.11 316.655 355.477 317.814 355.5 319.125H351.443Z" fill="black"/>
<ellipse cx="769" cy="326" rx="104" ry="35" fill="#D9D9D9"/>
<path d="M691.284 334H686.784L694.977 310.727H700.182L708.386 334H703.886L697.67 315.5H697.489L691.284 334ZM691.432 324.875H703.705V328.261H691.432V324.875ZM711.452 334V310.727H720.361C722.043 310.727 723.44 310.992 724.554 311.523C725.675 312.045 726.512 312.761 727.065 313.67C727.626 314.58 727.906 315.61 727.906 316.761C727.906 317.708 727.724 318.519 727.361 319.193C726.997 319.86 726.509 320.402 725.895 320.818C725.281 321.235 724.596 321.534 723.838 321.716V321.943C724.664 321.989 725.455 322.242 726.213 322.705C726.978 323.159 727.603 323.803 728.088 324.636C728.573 325.47 728.815 326.477 728.815 327.659C728.815 328.864 728.524 329.947 727.94 330.909C727.357 331.864 726.478 332.617 725.304 333.17C724.13 333.723 722.652 334 720.872 334H711.452ZM715.668 330.477H720.202C721.732 330.477 722.834 330.186 723.509 329.602C724.19 329.011 724.531 328.254 724.531 327.33C724.531 326.64 724.361 326.019 724.02 325.466C723.679 324.905 723.194 324.466 722.565 324.148C721.937 323.822 721.187 323.659 720.315 323.659H715.668V330.477ZM715.668 320.625H719.838C720.565 320.625 721.221 320.492 721.804 320.227C722.387 319.955 722.846 319.572 723.179 319.08C723.52 318.58 723.69 317.989 723.69 317.307C723.69 316.405 723.372 315.663 722.736 315.08C722.107 314.496 721.171 314.205 719.929 314.205H715.668V320.625ZM753.278 322.364C753.278 324.871 752.809 327.019 751.869 328.807C750.938 330.587 749.665 331.951 748.051 332.898C746.445 333.845 744.623 334.318 742.585 334.318C740.547 334.318 738.722 333.845 737.108 332.898C735.502 331.943 734.229 330.576 733.29 328.795C732.358 327.008 731.892 324.864 731.892 322.364C731.892 319.856 732.358 317.712 733.29 315.932C734.229 314.144 735.502 312.777 737.108 311.83C738.722 310.883 740.547 310.409 742.585 310.409C744.623 310.409 746.445 310.883 748.051 311.83C749.665 312.777 750.938 314.144 751.869 315.932C752.809 317.712 753.278 319.856 753.278 322.364ZM749.04 322.364C749.04 320.598 748.763 319.11 748.21 317.898C747.665 316.678 746.907 315.758 745.938 315.136C744.968 314.508 743.85 314.193 742.585 314.193C741.32 314.193 740.203 314.508 739.233 315.136C738.263 315.758 737.502 316.678 736.949 317.898C736.403 319.11 736.131 320.598 736.131 322.364C736.131 324.129 736.403 325.621 736.949 326.841C737.502 328.053 738.263 328.973 739.233 329.602C740.203 330.223 741.32 330.534 742.585 330.534C743.85 330.534 744.968 330.223 745.938 329.602C746.907 328.973 747.665 328.053 748.21 326.841C748.763 325.621 749.04 324.129 749.04 322.364ZM771.935 310.727H776.151V325.932C776.151 327.598 775.757 329.064 774.969 330.33C774.188 331.595 773.09 332.583 771.673 333.295C770.257 334 768.601 334.352 766.707 334.352C764.806 334.352 763.147 334 761.73 333.295C760.313 332.583 759.215 331.595 758.435 330.33C757.654 329.064 757.264 327.598 757.264 325.932V310.727H761.48V325.58C761.48 326.549 761.692 327.413 762.116 328.17C762.548 328.928 763.154 329.523 763.935 329.955C764.715 330.379 765.639 330.591 766.707 330.591C767.776 330.591 768.7 330.379 769.48 329.955C770.268 329.523 770.874 328.928 771.298 328.17C771.723 327.413 771.935 326.549 771.935 325.58V310.727ZM779.71 314.261V310.727H798.278V314.261H791.085V334H786.903V314.261H779.71ZM824.466 310.727H828.682V325.932C828.682 327.598 828.288 329.064 827.5 330.33C826.72 331.595 825.621 332.583 824.205 333.295C822.788 334 821.133 334.352 819.239 334.352C817.337 334.352 815.678 334 814.261 333.295C812.845 332.583 811.746 331.595 810.966 330.33C810.186 329.064 809.795 327.598 809.795 325.932V310.727H814.011V325.58C814.011 326.549 814.223 327.413 814.648 328.17C815.08 328.928 815.686 329.523 816.466 329.955C817.246 330.379 818.17 330.591 819.239 330.591C820.307 330.591 821.231 330.379 822.011 329.955C822.799 329.523 823.405 328.928 823.83 328.17C824.254 327.413 824.466 326.549 824.466 325.58V310.727ZM845.912 317.125C845.806 316.133 845.359 315.36 844.571 314.807C843.791 314.254 842.776 313.977 841.526 313.977C840.647 313.977 839.893 314.11 839.264 314.375C838.635 314.64 838.154 315 837.821 315.455C837.488 315.909 837.317 316.428 837.31 317.011C837.31 317.496 837.42 317.917 837.639 318.273C837.866 318.629 838.173 318.932 838.56 319.182C838.946 319.424 839.374 319.629 839.844 319.795C840.313 319.962 840.787 320.102 841.264 320.216L843.446 320.761C844.325 320.966 845.17 321.242 845.98 321.591C846.798 321.939 847.529 322.379 848.173 322.909C848.825 323.439 849.34 324.08 849.719 324.83C850.098 325.58 850.287 326.458 850.287 327.466C850.287 328.83 849.938 330.03 849.241 331.068C848.545 332.098 847.537 332.905 846.219 333.489C844.908 334.064 843.321 334.352 841.457 334.352C839.647 334.352 838.075 334.072 836.741 333.511C835.416 332.951 834.378 332.133 833.628 331.057C832.885 329.981 832.484 328.67 832.423 327.125H836.571C836.632 327.936 836.882 328.61 837.321 329.148C837.76 329.686 838.332 330.087 839.037 330.352C839.749 330.617 840.545 330.75 841.423 330.75C842.34 330.75 843.143 330.614 843.832 330.341C844.529 330.061 845.075 329.674 845.469 329.182C845.863 328.682 846.063 328.098 846.071 327.432C846.063 326.826 845.885 326.326 845.537 325.932C845.188 325.53 844.7 325.197 844.071 324.932C843.45 324.659 842.723 324.417 841.889 324.205L839.241 323.523C837.325 323.03 835.81 322.284 834.696 321.284C833.59 320.277 833.037 318.939 833.037 317.273C833.037 315.902 833.408 314.701 834.151 313.67C834.901 312.64 835.92 311.841 837.207 311.273C838.495 310.697 839.954 310.409 841.582 310.409C843.234 310.409 844.681 310.697 845.923 311.273C847.173 311.841 848.154 312.633 848.866 313.648C849.579 314.655 849.946 315.814 849.969 317.125H845.912Z" fill="black"/>
<ellipse cx="1040" cy="326.5" rx="115" ry="30.5" fill="#D9D9D9"/>
<path d="M986.216 318.58H981.966C981.845 317.883 981.621 317.265 981.295 316.727C980.97 316.182 980.564 315.72 980.08 315.341C979.595 314.962 979.042 314.678 978.42 314.489C977.807 314.292 977.144 314.193 976.432 314.193C975.167 314.193 974.045 314.511 973.068 315.148C972.091 315.777 971.326 316.701 970.773 317.92C970.22 319.133 969.943 320.614 969.943 322.364C969.943 324.144 970.22 325.644 970.773 326.864C971.333 328.076 972.098 328.992 973.068 329.614C974.045 330.227 975.163 330.534 976.42 330.534C977.117 330.534 977.769 330.443 978.375 330.261C978.989 330.072 979.538 329.795 980.023 329.432C980.515 329.068 980.928 328.621 981.261 328.091C981.602 327.561 981.837 326.955 981.966 326.273L986.216 326.295C986.057 327.402 985.712 328.439 985.182 329.409C984.659 330.379 983.973 331.235 983.125 331.977C982.277 332.712 981.284 333.288 980.148 333.705C979.011 334.114 977.75 334.318 976.364 334.318C974.318 334.318 972.492 333.845 970.886 332.898C969.28 331.951 968.015 330.583 967.091 328.795C966.167 327.008 965.705 324.864 965.705 322.364C965.705 319.856 966.17 317.712 967.102 315.932C968.034 314.144 969.303 312.777 970.909 311.83C972.515 310.883 974.333 310.409 976.364 310.409C977.659 310.409 978.864 310.591 979.977 310.955C981.091 311.318 982.083 311.852 982.955 312.557C983.826 313.254 984.542 314.11 985.102 315.125C985.67 316.133 986.042 317.284 986.216 318.58ZM1010.87 322.364C1010.87 324.871 1010.4 327.019 1009.46 328.807C1008.53 330.587 1007.26 331.951 1005.64 332.898C1004.04 333.845 1002.22 334.318 1000.18 334.318C998.141 334.318 996.315 333.845 994.702 332.898C993.096 331.943 991.823 330.576 990.884 328.795C989.952 327.008 989.486 324.864 989.486 322.364C989.486 319.856 989.952 317.712 990.884 315.932C991.823 314.144 993.096 312.777 994.702 311.83C996.315 310.883 998.141 310.409 1000.18 310.409C1002.22 310.409 1004.04 310.883 1005.64 311.83C1007.26 312.777 1008.53 314.144 1009.46 315.932C1010.4 317.712 1010.87 319.856 1010.87 322.364ZM1006.63 322.364C1006.63 320.598 1006.36 319.11 1005.8 317.898C1005.26 316.678 1004.5 315.758 1003.53 315.136C1002.56 314.508 1001.44 314.193 1000.18 314.193C998.914 314.193 997.796 314.508 996.827 315.136C995.857 315.758 995.096 316.678 994.543 317.898C993.997 319.11 993.724 320.598 993.724 322.364C993.724 324.129 993.997 325.621 994.543 326.841C995.096 328.053 995.857 328.973 996.827 329.602C997.796 330.223 998.914 330.534 1000.18 330.534C1001.44 330.534 1002.56 330.223 1003.53 329.602C1004.5 328.973 1005.26 328.053 1005.8 326.841C1006.36 325.621 1006.63 324.129 1006.63 322.364ZM1033.98 310.727V334H1030.23L1019.27 318.148H1019.07V334H1014.86V310.727H1018.63L1029.59 326.591H1029.79V310.727H1033.98ZM1037.55 314.261V310.727H1056.12V314.261H1048.93V334H1044.75V314.261H1037.55ZM1059.88 334H1055.38L1063.57 310.727H1068.78L1076.98 334H1072.48L1066.26 315.5H1066.08L1059.88 334ZM1060.03 324.875H1072.3V328.261H1060.03V324.875ZM1098.87 318.58H1094.62C1094.5 317.883 1094.28 317.265 1093.95 316.727C1093.63 316.182 1093.22 315.72 1092.74 315.341C1092.25 314.962 1091.7 314.678 1091.08 314.489C1090.46 314.292 1089.8 314.193 1089.09 314.193C1087.82 314.193 1086.7 314.511 1085.72 315.148C1084.75 315.777 1083.98 316.701 1083.43 317.92C1082.88 319.133 1082.6 320.614 1082.6 322.364C1082.6 324.144 1082.88 325.644 1083.43 326.864C1083.99 328.076 1084.75 328.992 1085.72 329.614C1086.7 330.227 1087.82 330.534 1089.08 330.534C1089.77 330.534 1090.43 330.443 1091.03 330.261C1091.64 330.072 1092.19 329.795 1092.68 329.432C1093.17 329.068 1093.58 328.621 1093.92 328.091C1094.26 327.561 1094.49 326.955 1094.62 326.273L1098.87 326.295C1098.71 327.402 1098.37 328.439 1097.84 329.409C1097.32 330.379 1096.63 331.235 1095.78 331.977C1094.93 332.712 1093.94 333.288 1092.8 333.705C1091.67 334.114 1090.41 334.318 1089.02 334.318C1086.97 334.318 1085.15 333.845 1083.54 332.898C1081.94 331.951 1080.67 330.583 1079.75 328.795C1078.82 327.008 1078.36 324.864 1078.36 322.364C1078.36 319.856 1078.83 317.712 1079.76 315.932C1080.69 314.144 1081.96 312.777 1083.57 311.83C1085.17 310.883 1086.99 310.409 1089.02 310.409C1090.32 310.409 1091.52 310.591 1092.63 310.955C1093.75 311.318 1094.74 311.852 1095.61 312.557C1096.48 313.254 1097.2 314.11 1097.76 315.125C1098.33 316.133 1098.7 317.284 1098.87 318.58ZM1101.71 314.261V310.727H1120.28V314.261H1113.09V334H1108.9V314.261H1101.71Z" fill="black"/>
<ellipse cx="1271.5" cy="324" rx="80.5" ry="37" fill="#D9D9D9"/>
<path d="M1224.3 333V309.727H1228.51V329.466H1238.76V333H1224.3ZM1262.31 321.364C1262.31 323.871 1261.84 326.019 1260.9 327.807C1259.97 329.587 1258.7 330.951 1257.08 331.898C1255.48 332.845 1253.65 333.318 1251.62 333.318C1249.58 333.318 1247.75 332.845 1246.14 331.898C1244.53 330.943 1243.26 329.576 1242.32 327.795C1241.39 326.008 1240.92 323.864 1240.92 321.364C1240.92 318.856 1241.39 316.712 1242.32 314.932C1243.26 313.144 1244.53 311.777 1246.14 310.83C1247.75 309.883 1249.58 309.409 1251.62 309.409C1253.65 309.409 1255.48 309.883 1257.08 310.83C1258.7 311.777 1259.97 313.144 1260.9 314.932C1261.84 316.712 1262.31 318.856 1262.31 321.364ZM1258.07 321.364C1258.07 319.598 1257.79 318.11 1257.24 316.898C1256.7 315.678 1255.94 314.758 1254.97 314.136C1254 313.508 1252.88 313.193 1251.62 313.193C1250.35 313.193 1249.23 313.508 1248.26 314.136C1247.29 314.758 1246.53 315.678 1245.98 316.898C1245.43 318.11 1245.16 319.598 1245.16 321.364C1245.16 323.129 1245.43 324.621 1245.98 325.841C1246.53 327.053 1247.29 327.973 1248.26 328.602C1249.23 329.223 1250.35 329.534 1251.62 329.534C1252.88 329.534 1254 329.223 1254.97 328.602C1255.94 327.973 1256.7 327.053 1257.24 325.841C1257.79 324.621 1258.07 323.129 1258.07 321.364ZM1281.89 317.159C1281.7 316.545 1281.44 315.996 1281.1 315.511C1280.78 315.019 1280.38 314.598 1279.92 314.25C1279.47 313.902 1278.94 313.64 1278.35 313.466C1277.76 313.284 1277.12 313.193 1276.42 313.193C1275.17 313.193 1274.06 313.508 1273.08 314.136C1272.1 314.765 1271.33 315.689 1270.77 316.909C1270.22 318.121 1269.94 319.598 1269.94 321.341C1269.94 323.098 1270.22 324.587 1270.77 325.807C1271.33 327.027 1272.09 327.955 1273.08 328.591C1274.06 329.22 1275.21 329.534 1276.51 329.534C1277.69 329.534 1278.72 329.307 1279.58 328.852C1280.45 328.398 1281.12 327.754 1281.59 326.92C1282.06 326.08 1282.3 325.095 1282.3 323.966L1283.25 324.114H1276.93V320.818H1286.38V323.614C1286.38 325.606 1285.95 327.33 1285.1 328.784C1284.25 330.239 1283.09 331.36 1281.6 332.148C1280.12 332.928 1278.41 333.318 1276.49 333.318C1274.34 333.318 1272.46 332.837 1270.84 331.875C1269.23 330.905 1267.97 329.53 1267.06 327.75C1266.16 325.962 1265.7 323.841 1265.7 321.386C1265.7 319.508 1265.97 317.83 1266.5 316.352C1267.04 314.875 1267.79 313.621 1268.75 312.591C1269.71 311.553 1270.84 310.765 1272.14 310.227C1273.43 309.682 1274.84 309.409 1276.36 309.409C1277.65 309.409 1278.85 309.598 1279.97 309.977C1281.08 310.348 1282.07 310.879 1282.93 311.568C1283.8 312.258 1284.52 313.076 1285.08 314.023C1285.64 314.97 1286.01 316.015 1286.18 317.159H1281.89ZM1294.67 309.727V333H1290.45V309.727H1294.67ZM1318.36 309.727V333H1314.61L1303.64 317.148H1303.45V333H1299.23V309.727H1303.01L1313.96 325.591H1314.16V309.727H1318.36Z" fill="black"/>
<path d="M290.293 287.707C290.683 288.098 291.317 288.098 291.707 287.707L298.071 281.343C298.462 280.953 298.462 280.319 298.071 279.929C297.681 279.538 297.047 279.538 296.657 279.929L291 285.586L285.343 279.929C284.953 279.538 284.319 279.538 283.929 279.929C283.538 280.319 283.538 280.953 283.929 281.343L290.293 287.707ZM290 249V287H292V249H290Z" fill="black"/>
<path d="M512.293 291.707C512.683 292.098 513.317 292.098 513.707 291.707L520.071 285.343C520.462 284.953 520.462 284.319 520.071 283.929C519.681 283.538 519.047 283.538 518.657 283.929L513 289.586L507.343 283.929C506.953 283.538 506.319 283.538 505.929 283.929C505.538 284.319 505.538 284.953 505.929 285.343L512.293 291.707ZM512 247V291H514V247H512Z" fill="black"/>
<path d="M763.293 293.707C763.683 294.098 764.317 294.098 764.707 293.707L771.071 287.343C771.462 286.953 771.462 286.319 771.071 285.929C770.681 285.538 770.047 285.538 769.657 285.929L764 291.586L758.343 285.929C757.953 285.538 757.319 285.538 756.929 285.929C756.538 286.319 756.538 286.953 756.929 287.343L763.293 293.707ZM763 249V293H765V249H763Z" fill="black"/>
<path d="M1027.31 296.723C1027.71 297.105 1028.34 297.09 1028.72 296.691L1034.94 290.184C1035.32 289.785 1035.31 289.152 1034.91 288.77C1034.51 288.389 1033.88 288.403 1033.49 288.802L1027.97 294.586L1022.18 289.059C1021.78 288.678 1021.15 288.692 1020.77 289.091C1020.39 289.491 1020.4 290.124 1020.8 290.505L1027.31 296.723ZM1026 252.023L1027 296.023L1029 295.977L1028 251.977L1026 252.023Z" fill="black"/>
<path d="M1271.29 284.707C1271.68 285.098 1272.32 285.098 1272.71 284.707L1279.07 278.343C1279.46 277.953 1279.46 277.319 1279.07 276.929C1278.68 276.538 1278.05 276.538 1277.66 276.929L1272 282.586L1266.34 276.929C1265.95 276.538 1265.32 276.538 1264.93 276.929C1264.54 277.319 1264.54 277.953 1264.93 278.343L1271.29 284.707ZM1271 247V284H1273V247H1271Z" fill="black"/>
<path d="M141.707 468.707C142.098 468.317 142.098 467.683 141.707 467.293L135.343 460.929C134.953 460.538 134.319 460.538 133.929 460.929C133.538 461.319 133.538 461.953 133.929 462.343L139.586 468L133.929 473.657C133.538 474.047 133.538 474.681 133.929 475.071C134.319 475.462 134.953 475.462 135.343 475.071L141.707 468.707ZM105 469L141 469L141 467L105 467L105 469Z" fill="black"/>
<path d="M547.707 473.707C548.098 473.317 548.098 472.683 547.707 472.293L541.343 465.929C540.953 465.538 540.319 465.538 539.929 465.929C539.538 466.319 539.538 466.953 539.929 467.343L545.586 473L539.929 478.657C539.538 479.047 539.538 479.681 539.929 480.071C540.319 480.462 540.953 480.462 541.343 480.071L547.707 473.707ZM513 474H547V472H513V474Z" fill="black"/>
<ellipse cx="227.5" cy="468.5" rx="86.5" ry="34.5" fill="#D9D9D9"/>
<path d="M167.364 472H162.435V457.455H167.463C168.907 457.455 170.148 457.746 171.185 458.328C172.226 458.906 173.027 459.737 173.585 460.821C174.144 461.905 174.423 463.203 174.423 464.713C174.423 466.228 174.142 467.53 173.578 468.619C173.019 469.708 172.212 470.544 171.156 471.126C170.105 471.709 168.841 472 167.364 472ZM165.07 469.72H167.236C168.249 469.72 169.094 469.536 169.771 469.166C170.448 468.792 170.957 468.236 171.298 467.497C171.639 466.754 171.81 465.826 171.81 464.713C171.81 463.6 171.639 462.677 171.298 461.943C170.957 461.205 170.453 460.653 169.786 460.288C169.123 459.919 168.299 459.734 167.314 459.734H165.07V469.72ZM176.927 472V457.455H186.387V459.663H179.562V463.612H185.897V465.821H179.562V469.791H186.444V472H176.927ZM196.98 461.453C196.914 460.833 196.634 460.35 196.142 460.004C195.654 459.659 195.02 459.486 194.239 459.486C193.689 459.486 193.218 459.569 192.825 459.734C192.432 459.9 192.132 460.125 191.923 460.409C191.715 460.693 191.608 461.018 191.604 461.382C191.604 461.685 191.672 461.948 191.81 462.17C191.952 462.393 192.143 462.582 192.385 462.739C192.626 462.89 192.894 463.018 193.188 463.122C193.481 463.226 193.777 463.314 194.075 463.385L195.439 463.726C195.988 463.854 196.516 464.027 197.023 464.244C197.534 464.462 197.991 464.737 198.393 465.068C198.801 465.4 199.123 465.8 199.359 466.268C199.596 466.737 199.714 467.286 199.714 467.916C199.714 468.768 199.497 469.519 199.061 470.168C198.625 470.812 197.996 471.316 197.172 471.68C196.353 472.04 195.361 472.22 194.196 472.22C193.064 472.22 192.082 472.045 191.249 471.695C190.42 471.344 189.771 470.833 189.303 470.161C188.839 469.488 188.588 468.669 188.55 467.703H191.142C191.18 468.21 191.336 468.631 191.611 468.967C191.885 469.304 192.243 469.554 192.683 469.72C193.128 469.886 193.625 469.969 194.175 469.969C194.748 469.969 195.25 469.884 195.68 469.713C196.116 469.538 196.457 469.296 196.703 468.989C196.949 468.676 197.075 468.312 197.08 467.895C197.075 467.516 196.964 467.204 196.746 466.957C196.528 466.706 196.223 466.498 195.83 466.332C195.441 466.162 194.987 466.01 194.466 465.878L192.811 465.452C191.613 465.144 190.666 464.678 189.97 464.053C189.279 463.423 188.933 462.587 188.933 461.545C188.933 460.688 189.165 459.938 189.629 459.294C190.098 458.65 190.735 458.151 191.54 457.795C192.345 457.436 193.256 457.256 194.274 457.256C195.306 457.256 196.211 457.436 196.987 457.795C197.768 458.151 198.382 458.645 198.827 459.28C199.272 459.91 199.501 460.634 199.516 461.453H196.98ZM214.514 462.362H211.858C211.782 461.927 211.642 461.541 211.439 461.205C211.235 460.864 210.982 460.575 210.679 460.338C210.376 460.101 210.03 459.924 209.642 459.805C209.258 459.682 208.844 459.621 208.399 459.621C207.608 459.621 206.907 459.82 206.297 460.217C205.686 460.61 205.208 461.188 204.862 461.95C204.516 462.708 204.343 463.634 204.343 464.727C204.343 465.84 204.516 466.777 204.862 467.54C205.212 468.297 205.69 468.87 206.297 469.259C206.907 469.642 207.606 469.834 208.392 469.834C208.827 469.834 209.234 469.777 209.613 469.663C209.997 469.545 210.34 469.372 210.643 469.145C210.951 468.918 211.209 468.638 211.417 468.307C211.63 467.975 211.777 467.597 211.858 467.17L214.514 467.185C214.414 467.876 214.199 468.525 213.868 469.131C213.541 469.737 213.112 470.272 212.582 470.736C212.052 471.195 211.431 471.555 210.721 471.815C210.011 472.071 209.223 472.199 208.356 472.199C207.078 472.199 205.937 471.903 204.933 471.311C203.929 470.719 203.138 469.865 202.561 468.747C201.983 467.63 201.694 466.29 201.694 464.727C201.694 463.16 201.985 461.82 202.568 460.707C203.15 459.59 203.943 458.735 204.947 458.143C205.951 457.552 207.087 457.256 208.356 457.256C209.166 457.256 209.919 457.369 210.615 457.597C211.311 457.824 211.931 458.158 212.475 458.598C213.02 459.034 213.467 459.569 213.818 460.203C214.173 460.833 214.405 461.553 214.514 462.362ZM216.927 472V457.455H222.381C223.499 457.455 224.436 457.649 225.194 458.037C225.956 458.425 226.531 458.97 226.92 459.67C227.313 460.366 227.509 461.179 227.509 462.107C227.509 463.039 227.31 463.849 226.913 464.536C226.52 465.217 225.94 465.745 225.173 466.119C224.406 466.489 223.463 466.673 222.346 466.673H218.461V464.486H221.991C222.644 464.486 223.179 464.396 223.596 464.216C224.013 464.031 224.32 463.764 224.519 463.413C224.723 463.058 224.825 462.623 224.825 462.107C224.825 461.59 224.723 461.15 224.519 460.786C224.316 460.416 224.005 460.137 223.589 459.947C223.172 459.753 222.635 459.656 221.977 459.656H219.562V472H216.927ZM224.441 465.409L228.042 472H225.102L221.565 465.409H224.441ZM232.57 457.455V472H229.935V457.455H232.57ZM235.423 472V457.455H240.877C241.995 457.455 242.932 457.663 243.69 458.08C244.452 458.496 245.028 459.069 245.416 459.798C245.809 460.523 246.005 461.347 246.005 462.27C246.005 463.203 245.809 464.031 245.416 464.756C245.023 465.48 244.443 466.051 243.676 466.467C242.909 466.879 241.964 467.085 240.842 467.085H237.227V464.919H240.487C241.14 464.919 241.675 464.805 242.092 464.578C242.509 464.351 242.816 464.038 243.015 463.641C243.219 463.243 243.321 462.786 243.321 462.27C243.321 461.754 243.219 461.299 243.015 460.906C242.816 460.513 242.506 460.208 242.085 459.99C241.668 459.768 241.131 459.656 240.473 459.656H238.058V472H235.423ZM247.655 459.663V457.455H259.26V459.663H254.764V472H252.151V459.663H247.655ZM264.132 457.455V472H261.497V457.455H264.132ZM279.983 464.727C279.983 466.295 279.689 467.637 279.102 468.754C278.52 469.867 277.724 470.719 276.716 471.311C275.712 471.903 274.573 472.199 273.299 472.199C272.026 472.199 270.885 471.903 269.876 471.311C268.872 470.714 268.077 469.86 267.49 468.747C266.907 467.63 266.616 466.29 266.616 464.727C266.616 463.16 266.907 461.82 267.49 460.707C268.077 459.59 268.872 458.735 269.876 458.143C270.885 457.552 272.026 457.256 273.299 457.256C274.573 457.256 275.712 457.552 276.716 458.143C277.724 458.735 278.52 459.59 279.102 460.707C279.689 461.82 279.983 463.16 279.983 464.727ZM277.333 464.727C277.333 463.624 277.161 462.694 276.815 461.936C276.474 461.174 276.001 460.598 275.395 460.21C274.788 459.817 274.09 459.621 273.299 459.621C272.509 459.621 271.81 459.817 271.204 460.21C270.598 460.598 270.122 461.174 269.777 461.936C269.436 462.694 269.265 463.624 269.265 464.727C269.265 465.83 269.436 466.763 269.777 467.526C270.122 468.283 270.598 468.858 271.204 469.251C271.81 469.64 272.509 469.834 273.299 469.834C274.09 469.834 274.788 469.64 275.395 469.251C276.001 468.858 276.474 468.283 276.815 467.526C277.161 466.763 277.333 465.83 277.333 464.727ZM294.427 457.455V472H292.083L285.229 462.092H285.109V472H282.474V457.455H284.832L291.678 467.369H291.806V457.455H294.427Z" fill="black"/>
<line x1="514" y1="366" x2="514" y2="473" stroke="black" stroke-width="2"/>
<ellipse cx="633.5" cy="473.5" rx="86.5" ry="34.5" fill="#D9D9D9"/>
<path d="M573.364 482H568.435V467.455H573.463C574.907 467.455 576.148 467.746 577.185 468.328C578.226 468.906 579.027 469.737 579.585 470.821C580.144 471.905 580.423 473.203 580.423 474.713C580.423 476.228 580.142 477.53 579.578 478.619C579.019 479.708 578.212 480.544 577.156 481.126C576.105 481.709 574.841 482 573.364 482ZM571.07 479.72H573.236C574.249 479.72 575.094 479.536 575.771 479.166C576.448 478.792 576.957 478.236 577.298 477.497C577.639 476.754 577.81 475.826 577.81 474.713C577.81 473.6 577.639 472.677 577.298 471.943C576.957 471.205 576.453 470.653 575.786 470.288C575.123 469.919 574.299 469.734 573.314 469.734H571.07V479.72ZM582.927 482V467.455H592.387V469.663H585.562V473.612H591.897V475.821H585.562V479.791H592.444V482H582.927ZM602.98 471.453C602.914 470.833 602.634 470.35 602.142 470.004C601.654 469.659 601.02 469.486 600.239 469.486C599.689 469.486 599.218 469.569 598.825 469.734C598.432 469.9 598.132 470.125 597.923 470.409C597.715 470.693 597.608 471.018 597.604 471.382C597.604 471.685 597.672 471.948 597.81 472.17C597.952 472.393 598.143 472.582 598.385 472.739C598.626 472.89 598.894 473.018 599.188 473.122C599.481 473.226 599.777 473.314 600.075 473.385L601.439 473.726C601.988 473.854 602.516 474.027 603.023 474.244C603.534 474.462 603.991 474.737 604.393 475.068C604.801 475.4 605.123 475.8 605.359 476.268C605.596 476.737 605.714 477.286 605.714 477.916C605.714 478.768 605.497 479.519 605.061 480.168C604.625 480.812 603.996 481.316 603.172 481.68C602.353 482.04 601.361 482.22 600.196 482.22C599.064 482.22 598.082 482.045 597.249 481.695C596.42 481.344 595.771 480.833 595.303 480.161C594.839 479.488 594.588 478.669 594.55 477.703H597.142C597.18 478.21 597.336 478.631 597.611 478.967C597.885 479.304 598.243 479.554 598.683 479.72C599.128 479.886 599.625 479.969 600.175 479.969C600.748 479.969 601.25 479.884 601.68 479.713C602.116 479.538 602.457 479.296 602.703 478.989C602.949 478.676 603.075 478.312 603.08 477.895C603.075 477.516 602.964 477.204 602.746 476.957C602.528 476.706 602.223 476.498 601.83 476.332C601.441 476.162 600.987 476.01 600.466 475.878L598.811 475.452C597.613 475.144 596.666 474.678 595.97 474.053C595.279 473.423 594.933 472.587 594.933 471.545C594.933 470.688 595.165 469.938 595.629 469.294C596.098 468.65 596.735 468.151 597.54 467.795C598.345 467.436 599.256 467.256 600.274 467.256C601.306 467.256 602.211 467.436 602.987 467.795C603.768 468.151 604.382 468.645 604.827 469.28C605.272 469.91 605.501 470.634 605.516 471.453H602.98ZM620.514 472.362H617.858C617.782 471.927 617.642 471.541 617.439 471.205C617.235 470.864 616.982 470.575 616.679 470.338C616.376 470.101 616.03 469.924 615.642 469.805C615.258 469.682 614.844 469.621 614.399 469.621C613.608 469.621 612.907 469.82 612.297 470.217C611.686 470.61 611.208 471.188 610.862 471.95C610.516 472.708 610.343 473.634 610.343 474.727C610.343 475.84 610.516 476.777 610.862 477.54C611.212 478.297 611.69 478.87 612.297 479.259C612.907 479.642 613.606 479.834 614.392 479.834C614.827 479.834 615.234 479.777 615.613 479.663C615.997 479.545 616.34 479.372 616.643 479.145C616.951 478.918 617.209 478.638 617.417 478.307C617.63 477.975 617.777 477.597 617.858 477.17L620.514 477.185C620.414 477.876 620.199 478.525 619.868 479.131C619.541 479.737 619.112 480.272 618.582 480.736C618.052 481.195 617.431 481.555 616.721 481.815C616.011 482.071 615.223 482.199 614.356 482.199C613.078 482.199 611.937 481.903 610.933 481.311C609.929 480.719 609.138 479.865 608.561 478.747C607.983 477.63 607.694 476.29 607.694 474.727C607.694 473.16 607.985 471.82 608.568 470.707C609.15 469.59 609.943 468.735 610.947 468.143C611.951 467.552 613.087 467.256 614.356 467.256C615.166 467.256 615.919 467.369 616.615 467.597C617.311 467.824 617.931 468.158 618.475 468.598C619.02 469.034 619.467 469.569 619.818 470.203C620.173 470.833 620.405 471.553 620.514 472.362ZM622.927 482V467.455H628.381C629.499 467.455 630.436 467.649 631.194 468.037C631.956 468.425 632.531 468.97 632.92 469.67C633.313 470.366 633.509 471.179 633.509 472.107C633.509 473.039 633.31 473.849 632.913 474.536C632.52 475.217 631.94 475.745 631.173 476.119C630.406 476.489 629.463 476.673 628.346 476.673H624.461V474.486H627.991C628.644 474.486 629.179 474.396 629.596 474.216C630.013 474.031 630.32 473.764 630.519 473.413C630.723 473.058 630.825 472.623 630.825 472.107C630.825 471.59 630.723 471.15 630.519 470.786C630.316 470.416 630.005 470.137 629.589 469.947C629.172 469.753 628.635 469.656 627.977 469.656H625.562V482H622.927ZM630.441 475.409L634.042 482H631.102L627.565 475.409H630.441ZM638.57 467.455V482H635.935V467.455H638.57ZM641.423 482V467.455H646.877C647.995 467.455 648.932 467.663 649.69 468.08C650.452 468.496 651.028 469.069 651.416 469.798C651.809 470.523 652.005 471.347 652.005 472.27C652.005 473.203 651.809 474.031 651.416 474.756C651.023 475.48 650.443 476.051 649.676 476.467C648.909 476.879 647.964 477.085 646.842 477.085H643.227V474.919H646.487C647.14 474.919 647.675 474.805 648.092 474.578C648.509 474.351 648.816 474.038 649.015 473.641C649.219 473.243 649.321 472.786 649.321 472.27C649.321 471.754 649.219 471.299 649.015 470.906C648.816 470.513 648.506 470.208 648.085 469.99C647.668 469.768 647.131 469.656 646.473 469.656H644.058V482H641.423ZM653.655 469.663V467.455H665.26V469.663H660.764V482H658.151V469.663H653.655ZM670.132 467.455V482H667.497V467.455H670.132ZM685.983 474.727C685.983 476.295 685.689 477.637 685.102 478.754C684.52 479.867 683.724 480.719 682.716 481.311C681.712 481.903 680.573 482.199 679.299 482.199C678.026 482.199 676.885 481.903 675.876 481.311C674.872 480.714 674.077 479.86 673.49 478.747C672.907 477.63 672.616 476.29 672.616 474.727C672.616 473.16 672.907 471.82 673.49 470.707C674.077 469.59 674.872 468.735 675.876 468.143C676.885 467.552 678.026 467.256 679.299 467.256C680.573 467.256 681.712 467.552 682.716 468.143C683.724 468.735 684.52 469.59 685.102 470.707C685.689 471.82 685.983 473.16 685.983 474.727ZM683.333 474.727C683.333 473.624 683.161 472.694 682.815 471.936C682.474 471.174 682.001 470.598 681.395 470.21C680.788 469.817 680.09 469.621 679.299 469.621C678.509 469.621 677.81 469.817 677.204 470.21C676.598 470.598 676.122 471.174 675.777 471.936C675.436 472.694 675.265 473.624 675.265 474.727C675.265 475.83 675.436 476.763 675.777 477.526C676.122 478.283 676.598 478.858 677.204 479.251C677.81 479.64 678.509 479.834 679.299 479.834C680.09 479.834 680.788 479.64 681.395 479.251C682.001 478.858 682.474 478.283 682.815 477.526C683.161 476.763 683.333 475.83 683.333 474.727ZM700.427 467.455V482H698.083L691.229 472.092H691.109V482H688.474V467.455H690.832L697.678 477.369H697.806V467.455H700.427Z" fill="black"/>
<line x1="578" y1="324" x2="665" y2="324" stroke="black" stroke-width="2"/>
<line x1="374" y1="325" x2="460" y2="325" stroke="black" stroke-width="2"/>
<line x1="873" y1="323" x2="925" y2="323" stroke="black" stroke-width="2"/>
<line x1="161" y1="325" x2="207" y2="325" stroke="black" stroke-width="2"/>
<line x1="1160" y1="321" x2="1196" y2="321" stroke="black" stroke-width="2"/>
<defs>
<filter id="filter0_d_602195_805" x="642" y="173" width="10" height="84" filterUnits="userSpaceOnUse" color-interpolation-filters="sRGB">
<feFlood flood-opacity="0" result="BackgroundImageFix"/>
<feColorMatrix in="SourceAlpha" type="matrix" values="0 0 0 0 0 0 0 0 0 0 0 0 0 0 0 0 0 0 127 0" result="hardAlpha"/>
<feOffset dy="4"/>
<feGaussianBlur stdDeviation="2"/>
<feComposite in2="hardAlpha" operator="out"/>
<feColorMatrix type="matrix" values="0 0 0 0 0 0 0 0 0 0 0 0 0 0 0 0 0 0 0.25 0"/>
<feBlend mode="normal" in2="BackgroundImageFix" result="effect1_dropShadow_602195_805"/>
<feBlend mode="normal" in="SourceGraphic" in2="effect1_dropShadow_602195_805" result="shape"/>
</filter>
</defs>
</svg>
